<mxfile host="app.diagrams.net" agent="Mozilla/5.0 (Windows NT 10.0; Win64; x64) AppleWebKit/537.36 (KHTML, like Gecko) Chrome/135.0.0.0 Safari/537.36" version="26.3.0">
  <diagram name="第 1 页" id="tK_2oWleVy4g6x_5Zqby">
    <mxGraphModel dx="1426" dy="789" grid="0" gridSize="10" guides="1" tooltips="1" connect="1" arrows="1" fold="1" page="1" pageScale="1" pageWidth="827" pageHeight="1169" background="none" math="0" shadow="0">
      <root>
        <mxCell id="0" />
        <mxCell id="1" parent="0" />
        <mxCell id="LxozaB-qy3NKo2jxEyTn-5" style="edgeStyle=orthogonalEdgeStyle;rounded=0;orthogonalLoop=1;jettySize=auto;html=1;exitX=1;exitY=0.5;exitDx=0;exitDy=0;entryX=0;entryY=0.5;entryDx=0;entryDy=0;" edge="1" parent="1" source="LxozaB-qy3NKo2jxEyTn-1" target="LxozaB-qy3NKo2jxEyTn-2">
          <mxGeometry relative="1" as="geometry" />
        </mxCell>
        <mxCell id="LxozaB-qy3NKo2jxEyTn-6" style="edgeStyle=orthogonalEdgeStyle;rounded=0;orthogonalLoop=1;jettySize=auto;html=1;exitX=1;exitY=0.5;exitDx=0;exitDy=0;entryX=0;entryY=0.5;entryDx=0;entryDy=0;" edge="1" parent="1" source="LxozaB-qy3NKo2jxEyTn-1" target="LxozaB-qy3NKo2jxEyTn-3">
          <mxGeometry relative="1" as="geometry" />
        </mxCell>
        <mxCell id="LxozaB-qy3NKo2jxEyTn-7" style="edgeStyle=orthogonalEdgeStyle;rounded=0;orthogonalLoop=1;jettySize=auto;html=1;exitX=1;exitY=0.5;exitDx=0;exitDy=0;entryX=0;entryY=0.5;entryDx=0;entryDy=0;" edge="1" parent="1" source="LxozaB-qy3NKo2jxEyTn-1" target="LxozaB-qy3NKo2jxEyTn-4">
          <mxGeometry relative="1" as="geometry" />
        </mxCell>
        <mxCell id="LxozaB-qy3NKo2jxEyTn-1" value="服务器" style="rounded=0;whiteSpace=wrap;html=1;" vertex="1" parent="1">
          <mxGeometry x="16" y="227" width="120" height="60" as="geometry" />
        </mxCell>
        <mxCell id="LxozaB-qy3NKo2jxEyTn-2" value="上传" style="rounded=0;whiteSpace=wrap;html=1;" vertex="1" parent="1">
          <mxGeometry x="344" y="114" width="120" height="60" as="geometry" />
        </mxCell>
        <mxCell id="LxozaB-qy3NKo2jxEyTn-19" style="edgeStyle=orthogonalEdgeStyle;rounded=0;orthogonalLoop=1;jettySize=auto;html=1;exitX=1;exitY=0.5;exitDx=0;exitDy=0;entryX=0;entryY=0.5;entryDx=0;entryDy=0;" edge="1" parent="1" source="LxozaB-qy3NKo2jxEyTn-3" target="LxozaB-qy3NKo2jxEyTn-18">
          <mxGeometry relative="1" as="geometry" />
        </mxCell>
        <mxCell id="LxozaB-qy3NKo2jxEyTn-3" value="下载" style="rounded=0;whiteSpace=wrap;html=1;" vertex="1" parent="1">
          <mxGeometry x="344" y="315" width="120" height="60" as="geometry" />
        </mxCell>
        <mxCell id="LxozaB-qy3NKo2jxEyTn-10" style="edgeStyle=orthogonalEdgeStyle;rounded=0;orthogonalLoop=1;jettySize=auto;html=1;exitX=1;exitY=0.5;exitDx=0;exitDy=0;entryX=0;entryY=0.5;entryDx=0;entryDy=0;" edge="1" parent="1" source="LxozaB-qy3NKo2jxEyTn-4" target="LxozaB-qy3NKo2jxEyTn-8">
          <mxGeometry relative="1" as="geometry" />
        </mxCell>
        <mxCell id="LxozaB-qy3NKo2jxEyTn-11" style="edgeStyle=orthogonalEdgeStyle;rounded=0;orthogonalLoop=1;jettySize=auto;html=1;exitX=1;exitY=0.5;exitDx=0;exitDy=0;entryX=0;entryY=0.5;entryDx=0;entryDy=0;" edge="1" parent="1" source="LxozaB-qy3NKo2jxEyTn-4" target="LxozaB-qy3NKo2jxEyTn-9">
          <mxGeometry relative="1" as="geometry" />
        </mxCell>
        <mxCell id="LxozaB-qy3NKo2jxEyTn-4" value="浏览" style="rounded=0;whiteSpace=wrap;html=1;" vertex="1" parent="1">
          <mxGeometry x="344" y="823" width="120" height="60" as="geometry" />
        </mxCell>
        <mxCell id="LxozaB-qy3NKo2jxEyTn-23" style="edgeStyle=orthogonalEdgeStyle;rounded=0;orthogonalLoop=1;jettySize=auto;html=1;exitX=1;exitY=0.5;exitDx=0;exitDy=0;entryX=0.5;entryY=1;entryDx=0;entryDy=0;" edge="1" parent="1" source="LxozaB-qy3NKo2jxEyTn-8" target="LxozaB-qy3NKo2jxEyTn-18">
          <mxGeometry relative="1" as="geometry" />
        </mxCell>
        <mxCell id="LxozaB-qy3NKo2jxEyTn-8" value="ListShow（html界面）" style="rounded=0;whiteSpace=wrap;html=1;" vertex="1" parent="1">
          <mxGeometry x="648" y="754" width="120" height="60" as="geometry" />
        </mxCell>
        <mxCell id="LxozaB-qy3NKo2jxEyTn-24" style="edgeStyle=orthogonalEdgeStyle;rounded=0;orthogonalLoop=1;jettySize=auto;html=1;exitX=1;exitY=0.5;exitDx=0;exitDy=0;entryX=0.5;entryY=1;entryDx=0;entryDy=0;" edge="1" parent="1" source="LxozaB-qy3NKo2jxEyTn-9" target="LxozaB-qy3NKo2jxEyTn-18">
          <mxGeometry relative="1" as="geometry" />
        </mxCell>
        <mxCell id="LxozaB-qy3NKo2jxEyTn-9" value="ListJson（客户端列表）" style="rounded=0;whiteSpace=wrap;html=1;" vertex="1" parent="1">
          <mxGeometry x="648" y="880" width="120" height="60" as="geometry" />
        </mxCell>
        <mxCell id="LxozaB-qy3NKo2jxEyTn-30" style="edgeStyle=orthogonalEdgeStyle;rounded=0;orthogonalLoop=1;jettySize=auto;html=1;exitX=0;exitY=0;exitDx=80;exitDy=65;exitPerimeter=0;entryX=0.5;entryY=0;entryDx=0;entryDy=0;" edge="1" parent="1" source="LxozaB-qy3NKo2jxEyTn-14" target="LxozaB-qy3NKo2jxEyTn-25">
          <mxGeometry relative="1" as="geometry" />
        </mxCell>
        <mxCell id="LxozaB-qy3NKo2jxEyTn-14" value="backup" style="shape=note;whiteSpace=wrap;html=1;backgroundOutline=1;darkOpacity=0.05;" vertex="1" parent="1">
          <mxGeometry x="1127" y="94" width="80" height="100" as="geometry" />
        </mxCell>
        <mxCell id="LxozaB-qy3NKo2jxEyTn-15" value="packup" style="shape=note;whiteSpace=wrap;html=1;backgroundOutline=1;darkOpacity=0.05;" vertex="1" parent="1">
          <mxGeometry x="1127" y="465" width="80" height="100" as="geometry" />
        </mxCell>
        <mxCell id="LxozaB-qy3NKo2jxEyTn-16" style="edgeStyle=orthogonalEdgeStyle;rounded=0;orthogonalLoop=1;jettySize=auto;html=1;exitX=1;exitY=0.5;exitDx=0;exitDy=0;entryX=0;entryY=0.5;entryDx=0;entryDy=0;entryPerimeter=0;" edge="1" parent="1" source="LxozaB-qy3NKo2jxEyTn-2" target="LxozaB-qy3NKo2jxEyTn-14">
          <mxGeometry relative="1" as="geometry" />
        </mxCell>
        <mxCell id="LxozaB-qy3NKo2jxEyTn-18" value="hash表" style="rounded=0;whiteSpace=wrap;html=1;" vertex="1" parent="1">
          <mxGeometry x="827" y="315" width="120" height="60" as="geometry" />
        </mxCell>
        <mxCell id="LxozaB-qy3NKo2jxEyTn-21" style="edgeStyle=orthogonalEdgeStyle;rounded=0;orthogonalLoop=1;jettySize=auto;html=1;exitX=1;exitY=0.5;exitDx=0;exitDy=0;entryX=0;entryY=0.5;entryDx=0;entryDy=0;entryPerimeter=0;" edge="1" parent="1" source="LxozaB-qy3NKo2jxEyTn-18" target="LxozaB-qy3NKo2jxEyTn-15">
          <mxGeometry relative="1" as="geometry" />
        </mxCell>
        <mxCell id="LxozaB-qy3NKo2jxEyTn-22" style="edgeStyle=orthogonalEdgeStyle;rounded=0;orthogonalLoop=1;jettySize=auto;html=1;exitX=1;exitY=0.5;exitDx=0;exitDy=0;entryX=0;entryY=0.5;entryDx=0;entryDy=0;entryPerimeter=0;" edge="1" parent="1" source="LxozaB-qy3NKo2jxEyTn-18" target="LxozaB-qy3NKo2jxEyTn-14">
          <mxGeometry relative="1" as="geometry" />
        </mxCell>
        <mxCell id="LxozaB-qy3NKo2jxEyTn-25" value="文件压缩" style="rounded=0;whiteSpace=wrap;html=1;" vertex="1" parent="1">
          <mxGeometry x="1422" y="280" width="120" height="60" as="geometry" />
        </mxCell>
        <mxCell id="LxozaB-qy3NKo2jxEyTn-29" style="edgeStyle=orthogonalEdgeStyle;rounded=0;orthogonalLoop=1;jettySize=auto;html=1;exitX=0.5;exitY=1;exitDx=0;exitDy=0;entryX=0;entryY=0;entryDx=80;entryDy=65;entryPerimeter=0;" edge="1" parent="1" source="LxozaB-qy3NKo2jxEyTn-25" target="LxozaB-qy3NKo2jxEyTn-15">
          <mxGeometry relative="1" as="geometry" />
        </mxCell>
      </root>
    </mxGraphModel>
  </diagram>
</mxfile>
